<svg xmlns="http://www.w3.org/2000/svg" viewBox="-260 -1500 1720 1720">
  <path transform="scale(1,-1)" fill="#bfaedc" d="M180 -191Q475 -176 704 82Q934 341 1028 685Q988 694 930 694Q777 694 616.5 621.5Q456 549 320.5 436.5Q185 324 100.5 197.5Q16 71 16 -35Q16 -107 65.5 -149.0Q115 -191 180 -191ZM181 -210Q107 -210 51.0 -161.5Q-5 -113 -5 -35Q-5 77 79.5 206.0Q164 335 311 455Q604 696 930 714Q992 714 1032 709Q1070 857 1070 1001Q1070 1125 1038.0 1230.5Q1006 1336 947.5 1400.0Q889 1464 811 1464Q727 1464 666.5 1392.5Q606 1321 594 1212L592 1189Q592 1175 574 1172Q556 1172 556 1189Q570 1271 598.5 1330.0Q627 1389 684 1439Q736 1484 811 1484Q903 1484 971.0 1420.0Q1039 1356 1076.0 1248.5Q1113 1141 1113 1007Q1113 849 1078 700Q1135 688 1184 661Q1196 656 1196 645Q1196 640 1194.0 633.5Q1192 627 1184 624L1177 623Q1174 623 1171.0 623.5Q1168 624 1167 626Q1129 653 1072 673Q978 304 735 54Q491 -199 181 -210Z"/>
</svg>